<?xml version="1.0" encoding="UTF-8" standalone="no"?>
<!-- Created with Inkscape (http://www.inkscape.org/) -->

<svg
   xmlns:dc="http://purl.org/dc/elements/1.1/"
   xmlns:cc="http://creativecommons.org/ns#"
   xmlns:rdf="http://www.w3.org/1999/02/22-rdf-syntax-ns#"
   xmlns:svg="http://www.w3.org/2000/svg"
   xmlns="http://www.w3.org/2000/svg"
   xmlns:sodipodi="http://sodipodi.sourceforge.net/DTD/sodipodi-0.dtd"
   xmlns:inkscape="http://www.inkscape.org/namespaces/inkscape"
   width="30"
   height="30"
   viewBox="0 0 7.9374998 7.9375002"
   version="1.1"
   id="svg8"
   inkscape:version="0.92.2 (5c3e80d, 2017-08-06)"
   sodipodi:docname="about.svg">
  <defs
     id="defs2" />
  <sodipodi:namedview
     id="base"
     pagecolor="#ffffff"
     bordercolor="#666666"
     borderopacity="1.0"
     inkscape:pageopacity="0.0"
     inkscape:pageshadow="2"
     inkscape:zoom="7.9999999"
     inkscape:cx="2.9336313"
     inkscape:cy="1.8718521"
     inkscape:document-units="mm"
     inkscape:current-layer="layer1"
     showgrid="false"
     units="px"
     inkscape:window-width="1080"
     inkscape:window-height="1857"
     inkscape:window-x="1912"
     inkscape:window-y="32"
     inkscape:window-maximized="1" />
  <metadata
     id="metadata5">
    <rdf:RDF>
      <cc:Work
         rdf:about="">
        <dc:format>image/svg+xml</dc:format>
        <dc:type
           rdf:resource="http://purl.org/dc/dcmitype/StillImage" />
        <dc:title />
      </cc:Work>
    </rdf:RDF>
  </metadata>
  <g
     inkscape:label="Layer 1"
     inkscape:groupmode="layer"
     id="layer1"
     transform="translate(0,-289.06248)">
    <circle
       style="opacity:1;vector-effect:none;fill:none;fill-opacity:1;stroke:#333333;stroke-width:1;stroke-linecap:square;stroke-linejoin:miter;stroke-miterlimit:4;stroke-dasharray:none;stroke-dashoffset:0;stroke-opacity:1"
       id="path4504"
       cx="3.96875"
       cy="293.03122"
       r="3.4435959" />
    <g
       aria-label="?"
       style="font-style:normal;font-variant:normal;font-weight:normal;font-stretch:normal;font-size:5.30167103px;line-height:1.25;font-family:Arial;-inkscape-font-specification:Arial;font-variant-ligatures:normal;font-variant-position:normal;font-variant-caps:normal;font-variant-numeric:normal;font-variant-alternates:normal;font-feature-settings:normal;text-indent:0;text-align:start;text-decoration:none;text-decoration-line:none;text-decoration-style:solid;text-decoration-color:#000000;letter-spacing:0px;word-spacing:0px;text-transform:none;writing-mode:lr-tb;direction:ltr;text-orientation:mixed;dominant-baseline:auto;baseline-shift:baseline;text-anchor:start;white-space:normal;shape-padding:0;opacity:1;vector-effect:none;fill:#333333;fill-opacity:1;stroke:#333333;stroke-width:4.89813232;stroke-linecap:butt;stroke-linejoin:miter;stroke-miterlimit:4;stroke-dasharray:none;stroke-dashoffset:0;stroke-opacity:1"
       id="text4508"
       transform="matrix(1.0207973,0,0,1.0207973,-0.03303587,-6.1263319)">
      <path
         d="m 3.601158,293.89749 c 0.00345,-0.20537 0.026752,-0.36759 0.069895,-0.48667 0.043145,-0.11908 0.1311614,-0.25111 0.2640481,-0.39608 l 0.3391205,-0.34947 c 0.1449676,-0.16395 0.2174514,-0.33999 0.2174514,-0.5281 0,-0.18121 -0.04746,-0.32272 -0.1423789,-0.42455 -0.094919,-0.10355 -0.2329835,-0.15532 -0.414193,-0.15532 -0.1760321,0 -0.317548,0.0466 -0.4245479,0.13979 -0.1069999,0.0932 -0.1604998,0.21831 -0.1604998,0.37536 H 3.1105981 2.8711428 c 0.00345,-0.27958 0.1026871,-0.5048 0.2977012,-0.67565 0.1967417,-0.17258 0.4521608,-0.25887 0.7662572,-0.25887 0.326177,0 0.5798702,0.088 0.7610797,0.26405 0.1829353,0.17431 0.2744029,0.41419 0.2744029,0.71966 0,0.30201 -0.1397902,0.59971 -0.4193705,0.8931 l -0.282169,0.27958 c -0.1259837,0.13979 -0.1889756,0.34085 -0.1889756,0.60317 z m -0.02071,0.82062 c 0,-0.0777 0.023298,-0.14238 0.069895,-0.19415 0.048323,-0.0535 0.1190806,-0.0802 0.2122739,-0.0802 0.093193,0 0.1639514,0.0267 0.2122739,0.0802 0.048323,0.0518 0.072484,0.11652 0.072484,0.19415 0,0.0777 -0.024161,0.14238 -0.072484,0.19416 -0.048323,0.0501 -0.1190806,0.0751 -0.2122739,0.0751 -0.093193,0 -0.1639514,-0.025 -0.2122739,-0.0751 -0.046597,-0.0518 -0.069895,-0.11652 -0.069895,-0.19416 z"
         style="font-style:normal;font-variant:normal;font-weight:normal;font-stretch:normal;font-family:roboto;-inkscape-font-specification:roboto;fill:#333333;stroke:#333333;stroke-width:0.1959253;stroke-miterlimit:4;stroke-dasharray:none"
         id="path4510"
         inkscape:connector-curvature="0"
         sodipodi:nodetypes="ccccscssccccscsccccscscscscs" />
    </g>
  </g>
</svg>
